<svg width="2160" height="1080" viewBox="0 0 2160 1080" fill="none" xmlns="http://www.w3.org/2000/svg">
<g clip-path="url(#clip0_1417_6604)">
<path d="M1448.09 1080C1430.14 1076.67 1410.64 1076.08 1392 1074.98C1316.68 1070.53 1242.39 1060.27 1165.74 1063.04C1120.58 1064.66 1075.72 1068.27 1030.57 1070.13C1010.54 1070.94 999.473 1064.06 992.005 1055.2C984.346 1046.12 978.389 1033.83 952.53 1036.01C919.847 1038.76 910.65 1052.4 907.332 1067.11C906.851 1069.23 906.058 1071.34 905.409 1073.46C901.75 1072.21 897.611 1071.21 894.505 1069.68C845.954 1045.79 850.208 1012.76 917.02 998.571C1018.21 977.079 1074.1 936.689 1129.81 893.948C1152.32 876.69 1183.46 862.186 1228.4 872.91C1274.82 883.994 1266.15 906.93 1257.59 925.765C1234.69 976.166 1263.09 1026.26 1327.65 1039.98C1385.87 1052.35 1449.24 1054.12 1509.72 1061.86C1538.6 1065.55 1566.06 1070.84 1589.56 1079.99H1703.28C1669.98 1070.95 1636.87 1061.7 1602.8 1053.47C1547.47 1040.1 1486.69 1036.28 1427.41 1029.61C1337.34 1019.47 1296.33 973.839 1314.29 923.611C1337.89 857.652 1431.81 822.012 1527.33 785.4C1611 753.332 1685.61 717.925 1684.11 659.462C1683.17 622.612 1650.97 592.043 1600.06 566.414C1523.36 527.804 1533.14 485.374 1572.18 440.176C1611.04 395.196 1639.75 349.318 1604.23 299.562C1590.11 279.79 1558.03 270.051 1527.4 258.792C1474.04 239.166 1472.56 220.285 1530.97 204.792C1602.6 185.798 1635.33 157.464 1649.86 118.751C1667.99 70.4511 1748.89 55.107 1843.32 77.8275C1909.72 93.8007 1963.48 120.339 2032.94 133.545C2075.17 141.621 2117.77 141.621 2159.99 133.545V102.036C2035.1 131.9 1947.81 93.2796 1859.33 57.2454C1805.63 35.3754 1747.26 25.6284 1676.95 33.3693C1653.25 35.9775 1610.54 39.7386 1610.29 20.2581C1610.05 0.9072 1646.88 2.2707 1675.67 0.0081H1523.34C1527.34 32.994 1557.08 63.0423 1567.75 95.2911C1582.55 140.06 1536.74 170.141 1471.76 195.534C1449.63 204.174 1427.07 212.749 1402.96 219.877C1377.29 227.47 1343.65 235.983 1325.71 218.381C1307.21 200.224 1343.91 192.237 1369.34 185.369C1418.42 172.117 1479.71 167.424 1495.8 133.461C1512 99.2601 1486.94 67.851 1473.9 35.532C1469.15 23.7762 1466.08 11.8584 1462.45 0H1404.11C1412.24 12.3579 1420.54 24.6915 1428.33 37.1034C1448.96 69.9543 1476.71 103.583 1422.12 134.514C1385.58 155.218 1332 167.219 1299.6 190.237C1255.21 221.773 1209.03 251.78 1134 266.749C1116.61 270.216 1091.87 273.715 1093.26 285.196C1094.77 297.64 1119.62 302.789 1139.4 308.213C1200.24 324.891 1269.36 319.823 1334.05 326.425C1367.18 329.808 1401.61 334.16 1413.73 352.501C1422.97 366.49 1405.37 377.954 1384.34 385.085C1342.86 399.146 1299.73 412.206 1255.41 423.9C1148.27 452.183 1053.24 486.729 999.874 543.394C985.58 558.573 974.133 575.297 993.342 591.613C1003.88 600.561 1023.42 603.944 1044.13 602.562C1082.23 600.024 1112.94 589.159 1144.29 579.166C1209.36 558.425 1272.77 533.52 1352.18 531.141C1436.98 528.606 1499.92 558.187 1567.57 578.332C1624.89 595.401 1659.72 621.907 1648.86 656.77C1628.85 720.997 1548.9 765.064 1444.64 799.351C1411.65 810.2 1373.55 820.195 1333.79 809.671C1297.12 799.951 1302.29 780.586 1309.4 764.357C1324.6 729.637 1298.96 708.988 1239 690.069C1162.02 665.769 1160.53 645.373 1223.19 617.933C1268.63 598.034 1321.46 577.279 1384.28 582.8C1480.59 591.268 1530.68 628.798 1531.96 680.937C1532.12 687.647 1529.15 696.622 1546.72 699.592C1552.27 700.534 1563.1 697.915 1567.71 695.272C1586.08 684.704 1593.33 671.706 1595.19 657.944C1600.37 619.556 1546.77 602.292 1490.35 587.328C1446.16 575.608 1406.09 555.514 1350.96 560.058C1278.09 566.077 1228.24 595.399 1163.45 610.181C1106.99 623.066 1098.88 640.864 1138.14 665.086C1155.84 676.004 1177.74 685.768 1200.83 693.851C1290.46 725.25 1300.99 747.212 1242.02 787.377C1211.48 808.183 1171.85 826.835 1151.06 849.803C1103.39 902.453 1037.46 941.255 924.272 961.759C803.43 983.648 768.855 1039.23 840.206 1080H1448.09ZM1097.68 567C1081.86 574.803 1055.02 585.841 1037.59 574.452C1012.55 558.09 1045.76 544.776 1066 533.874C1152.12 487.458 1261.57 456.017 1363.4 419.631C1403.66 405.251 1441.09 387.917 1452.98 362.586C1463.88 339.366 1425.73 331.83 1393.85 323.106C1384.34 320.506 1368.17 319.718 1369.85 313.3C1370.47 310.97 1390.45 308.578 1401.67 308.491C1462.74 308.021 1501.81 326.446 1501.81 363.496C1496.38 399.163 1440.11 427.869 1374.02 450.522C1273.84 484.85 1183.78 524.532 1097.68 567ZM1267.73 523.646C1264.66 524.124 1261.36 524.235 1258.17 524.516C1259.3 522.815 1259.76 520.889 1261.68 519.45C1302.52 488.727 1369.88 474.171 1426.3 453.225C1510.66 421.905 1561.02 361.908 1525.06 326.473C1498.14 299.935 1452.67 288.943 1386.27 288.992C1352.78 288.797 1313.79 295.742 1274.2 301.377C1257.39 303.774 1234.85 308.812 1225.43 299.011C1216.25 289.456 1237.42 283.74 1252.39 279.755C1369.23 248.635 1548.22 256.889 1585.01 332.818C1606.87 377.96 1565.96 415.733 1511.17 449.275C1447.9 488.001 1361.29 509.031 1267.73 523.646Z" fill="#101510"/>
<path d="M1340.82 0H1296.93C1324.4 16.6536 1345.74 34.7139 1351.29 56.997C1358.2 84.7449 1346.18 110.346 1305.85 129.238C1234.26 162.778 1188.98 208.192 1108.84 237.476C1048.85 259.394 984.294 253.7 923.559 239.606C851.386 222.866 782.984 225.941 713.673 241.928C709.352 242.924 704.33 243.159 699.636 243.751C700.894 241.321 701.486 238.745 703.513 236.49C727.64 209.655 822.294 199.133 894.618 214.65C967.067 230.194 1039.58 250.447 1115.9 218.97C1167.96 197.492 1198.33 167.449 1238.77 141.375C1269.52 121.554 1312.19 104.849 1314.44 77.3577C1317.44 40.8186 1278.26 17.0748 1220.08 0H928.026C955.617 4.7655 983.107 9.72 1011.14 13.6971C1064.23 21.2571 1117 9.4689 1170.02 11.8476C1221.83 14.175 1260.13 27.9666 1285.01 50.3874C1300.3 64.1574 1299.81 78.4458 1281.27 92.0457C1273.99 97.3836 1264.5 100.686 1252.13 99.7461C1237.34 98.6364 1231.28 92.4561 1228.05 85.887C1206.12 41.337 1180.53 31.9572 1092.15 44.2098C1034.43 52.2099 991.639 37.1439 945.132 27.675C844.028 7.0902 744.151 39.3255 743.689 93.609C743.579 106.704 741.879 119.831 739.427 132.872C737.718 141.961 734.175 152.402 709.232 150.644C686.432 149.024 678.024 138.494 678.724 128.976C682.596 76.3479 702.786 15.1956 826.321 0H734.551C670.788 40.3326 643.495 86.6133 653.498 137.816C657.239 156.954 678.314 174.86 723.509 171.542C772.441 167.945 765.985 144.569 771.165 126.992C780.543 95.1696 771.471 59.2056 843.455 41.3667C890.993 29.5866 936.37 37.6785 974.957 52.4664C1008.24 65.2185 1040.25 69.9705 1083.37 67.7052C1178.68 62.6967 1212.84 86.3811 1189.74 136.52C1168.63 182.304 1094.31 221.686 1028.73 220.982C979.775 220.442 943.837 203.234 901.111 194.689C817.806 178.025 750.691 196.063 687.516 221.149C591.55 259.257 488.777 289.945 363.064 295.426C351.392 295.934 337.528 295.07 334.859 288.611C331.882 281.386 346.328 279.372 356.973 277.49C415.591 267.127 477.007 260.642 531.773 244.976C613.777 221.522 622.942 185.76 609.118 142.965C592.812 92.4966 615.693 44.496 666.395 0H618.152C579.294 48.5001 585.03 99.9 580.175 150.682C577.354 180.241 564.578 208.632 521.611 230.685C432.747 276.291 299.163 274.374 200.452 227.459C187.025 221.079 169.367 208.194 149.665 216.44C129.739 224.783 149.628 235.394 161.755 243.772C170.035 249.496 178.217 255.331 187.794 260.491C238.64 287.874 284.156 319.964 372.692 315.676C426.429 313.073 468.38 296.436 514.73 285.185C615.058 260.834 716.281 292.248 716.281 348.165C716.281 417.317 574.605 466.079 431.787 451.143C332.962 440.805 245.424 415.454 147.328 405.181C92.1078 399.398 25.6228 418.271 11.8655 445.87C0.342249 468.99 32.5205 488.552 91.7026 496.53C175.65 507.87 253.908 523.778 309.194 560.577C367.319 599.268 388.084 600.591 470.242 571.995C538.492 548.235 608.642 537.435 690.937 552.45C766.197 566.179 797.454 556.092 798.172 516.105C799.09 464.781 846.395 431.816 940.091 413.635C1020.69 397.996 1062.88 359.956 1042.65 318.789C1031.86 296.83 996.644 288.23 955.531 292.918C918.847 297.097 932.298 313.516 937.447 325.539C951.418 358.179 946.53 387.342 886.595 408.524C848.674 421.926 812.804 436.379 794.813 458.987C781.106 476.213 766.506 493.363 740.502 506.966C683.112 536.984 605.56 531.935 533.527 535.564C380.006 543.294 253.122 506.96 125.85 472.114C101.061 465.326 71.436 455.606 91.2928 439.233C110.116 423.706 142.926 428.914 168.712 436.655C254.669 462.453 338.158 489.618 439.868 499.565C526.752 508.046 614.739 497.34 655.063 469.8C732.657 416.85 752.793 356.94 748.596 293.144C746.028 254.021 791.014 236.358 865.25 248.805C984.142 268.739 1092.56 267.359 1182.43 217.644C1228.95 191.908 1265.32 161.509 1322.2 140.54C1371.9 122.216 1395.07 98.82 1385.39 67.4379C1378.03 43.578 1358.25 22.032 1340.82 0Z" fill="#101510"/>
<path d="M1942.7 1019.57C1837.93 972.996 1782.58 925.671 1869.07 862.18C1915.8 827.89 2020.34 816.18 2123.18 833.531C2135.22 835.561 2147.65 837.019 2160 838.585V780.945C2109.53 785.587 2058.86 789.78 2008.7 795.164C1876.82 809.322 1775.81 857.804 1765.22 922.112C1756.52 974.97 1826.61 1009.26 1910.39 1036.53C1933.76 1044.14 1967.53 1051.78 1953.66 1070.32C1949.34 1076.1 1941.36 1078.88 1931.9 1079.99H2003.52C2015.5 1052.65 1978.36 1035.42 1942.7 1019.57Z" fill="#101510"/>
<path d="M1492.24 993.351C1595.65 1011.21 1681.22 1045.7 1779.26 1068.41C1796.73 1072.46 1814.43 1076.24 1832.14 1080.02H1905.19C1901.42 1079.75 1897.72 1079.39 1894.18 1079.04C1805.97 1070.36 1736.09 1046.37 1674.48 1014.22C1575.68 962.647 1597.13 849.463 1713.82 808.69C1778.66 786.04 1841.68 762.015 1903.52 737.356C1921.74 730.088 1938.69 715.486 1917.29 706.495C1895.1 697.186 1885.81 713.585 1872.6 720.346C1848.53 732.666 1826.61 746.66 1798.85 756.434C1691.66 794.162 1595.07 835.32 1568.55 904.394C1563.86 916.593 1553.23 929.272 1522.19 925.133C1498.16 921.928 1496.77 909.681 1501.11 899.132C1524.86 841.406 1601.61 802.55 1688.93 767.313C1738.72 747.217 1799.27 731.794 1823.07 699.316C1842.7 672.532 1814.78 646.466 1812.3 619.895C1810.25 597.917 1818.7 573.62 1790.03 555.036C1768.67 541.182 1731.31 533.374 1710.96 519.293C1656.3 481.493 1674.97 438.863 1695.51 398.493C1718.12 354.043 1738.28 310.691 1716.99 264.386C1697.09 221.141 1698.29 177.789 1738.06 136.609C1744.98 129.446 1755.76 122.785 1773.8 124.694C1792.43 126.668 1794.86 134.954 1794.78 143.073C1794.45 176.485 1774.41 209.045 1781.28 242.973C1787.73 274.833 1830.28 298.288 1878.8 292.52C1963.1 282.501 2056.14 304.46 2086.18 344.774C2115.98 384.779 2099.34 428.474 2117.46 469.705C2126 489.145 2131.73 509.125 2160.01 524.207V460.757C2144.34 439.427 2140.56 416.791 2139.65 394.529C2136.77 324.429 2073.31 279.201 1937.86 257.909C1851.16 244.288 1821.7 215.144 1827.1 156.424C1829.02 135.542 1842.77 110.91 1786.48 105.097C1734.45 99.7242 1720.54 123.876 1705.16 142.373C1683.42 168.509 1650.43 190.109 1612.01 210.702C1573.04 231.587 1614.13 246.774 1635.72 262.016C1707.32 312.541 1696.63 367.316 1649.71 417.717C1595.51 475.931 1618.88 519.172 1703.05 563.93C1788.27 609.252 1798.94 680.281 1734.48 723.656C1684.15 757.525 1605.66 776.895 1546.98 806.779C1477.09 842.37 1394.82 874.924 1382.02 928.746C1372.86 967.218 1431.42 982.851 1492.24 993.351Z" fill="#101510"/>
<path d="M1331.06 359.718C1329.96 356.937 1319.62 353.778 1312.59 353.076C1253.51 347.271 1192.03 348.297 1135.07 336.125C1114.8 331.792 1104.57 339.217 1102.94 348.31C1095.06 392.48 1055.91 424.032 968.223 439.171C917.012 448.011 866.113 460.882 854.072 490.471C845.649 511.164 848.86 533.104 848.079 554.499C847.084 581.82 818.609 594.826 765.951 589.747C719.371 585.252 673.759 576.123 627.004 574.627C526.487 571.387 465.275 605.469 409.145 640.364C382.555 656.893 387.136 675.502 420.818 689.933C443.063 699.467 466.871 695.995 488.006 688.448C513.236 679.441 534.569 666.427 562.178 660.571C705.67 630.12 845.004 644.698 973.017 681.053C1087.02 713.426 1111.86 757.493 1059.95 800.963C1011.88 841.193 929.28 852.803 848.364 866.378C740.186 884.52 645.312 909.867 616.04 972.27C600.251 1005.94 566.345 1034.26 491.2 1040.12C423.272 1045.41 380.254 1022.89 337.704 1000.68C301.73 981.909 268.362 960.754 217.473 951.42C128.647 935.139 62.7021 957.366 0 983.985V1022.76C18.5923 1009.18 35.7105 995.004 63.7021 985.343C146.672 956.723 217.552 963.5 280.178 1004.15C322.641 1031.71 368.254 1058.06 422.747 1080.02H626.6C596.399 1016.47 653.266 967.426 739.896 924.634C795.215 897.31 871.921 887.26 938.942 869.362C1027.82 845.61 1102.78 815.13 1122.63 762.026C1137.18 723.087 1081.95 704.133 1029.52 684.485C991.579 670.264 943.115 660.363 934.754 632.712C933.426 628.317 938.205 623.457 940.161 618.813C944.542 619.863 950.064 620.398 953.076 622.053C959.957 625.865 965.277 630.377 971.835 634.351C1013.21 659.44 1066.16 677.978 1116.14 698.214C1184.48 725.878 1182.37 759.326 1127.8 807.397C1056.37 870.307 937.528 901.603 818.948 934.065C731.768 957.943 650.63 1025.27 698.557 1080H766.208C705.236 1016.53 773.059 949.698 898.339 928.419C953.474 919.055 1014.16 914.379 1051.92 888.086C1095.88 857.485 1119.6 820.586 1172.43 792.62C1197.44 779.39 1224.17 765.239 1219.84 744.919C1214.11 718.07 1167.07 707.208 1132.14 692.026C1067.51 663.946 988.909 640.691 961.795 597.591C925.259 539.5 987.115 495.142 1060.25 454.591C1129.36 416.251 1226.96 399.781 1312.52 374.079C1322.97 370.939 1333.7 366.403 1331.06 359.718ZM979.866 486C944.518 517.992 932.005 552.854 921.327 588.529C908.676 630.814 845.885 650.532 762.56 633.42C652.144 610.74 560.296 617.004 478.214 660.42C468.928 665.331 449.598 672.502 441.563 665.388C427.68 653.092 449.224 642.67 464.588 633.798C542.924 588.54 635.163 581.086 744.818 604.586C786.931 613.612 845.685 626.186 871.419 591.464C884.569 573.728 883.228 553.3 888.438 534.087C890.661 511.102 887.776 486.996 924.831 469.254C940.53 461.737 961.682 454.453 981.91 460.987C1001.76 467.389 988.58 478.11 979.866 486Z" fill="#101510"/>
<path d="M1012.28 759.321C997.781 752.339 978.927 771.12 963.822 779.22C931.332 796.603 893.707 806.658 846.804 796.943C802.83 787.836 760.126 782.471 713.526 791.47C617.615 809.992 535.454 843.275 430.194 852.593C340.189 860.56 236.892 835.807 208.887 792.318C186.932 758.228 204.813 721.848 187.727 687.288C160.402 632.043 109.06 586.17 0 562.41V588.06C82.432 608.283 119.89 645.786 140.617 687.474C168.653 743.861 184.808 801.738 148.208 858.468C125.757 893.274 66.7068 911.347 0 922.728V944.846C153.2 887.674 273.953 906.458 387.433 971.846C447.352 1006.38 509.794 1006.51 543.427 964.13C593.748 900.72 671.718 854.666 806.445 835.38C870.947 826.143 943.467 825.547 992.332 797.418C1011.48 786.383 1035.3 770.407 1012.28 759.321ZM769 823.02C680.447 846.288 611.649 883.518 526.021 908.731C495.464 917.727 461.744 922.158 421.776 922.263C364.171 921.159 308.682 910.135 257.89 893.079C247.033 889.434 231.981 883.956 240.773 875.626C252.394 864.624 273.94 865.847 292.303 869.616C429.005 897.672 536.394 865.296 642.754 828.484C678.597 816.064 715.763 803.577 763.413 805.548C773.505 805.966 782.68 808.272 782.611 812.349C782.557 816.005 775.744 821.251 769.005 823.02H769Z" fill="#101510"/>
<path d="M915.011 696.128C811.687 674.082 702.495 682.044 595.124 686.216C573.258 687.064 550.297 697.181 554.588 710.37C557.429 719.102 581.041 717.755 594.905 716.075C672.692 706.647 750.968 700.782 830.762 707.098C854.414 708.969 890.828 707.576 890.745 724.418C890.657 741.952 856.14 740.618 831.384 739.525C758.17 736.285 686.01 732.291 613.554 744.844C461.612 771.166 372.263 751.726 334.519 673.564C289.916 581.243 176.967 533.164 0 516.043V530.771C1.20646 530.866 2.39762 530.985 3.5475 531.168C152.709 554.928 271.797 643.035 279.366 733.541C281.786 762.483 292.669 791.411 348.418 807.359C412.192 825.606 471.951 811.82 525.772 794.718C625.484 763.039 722.261 733.01 849.205 758.935C883.609 765.955 927.987 757.828 946.57 737.732C962.566 720.428 946.953 702.945 915.011 696.128Z" fill="#101510"/>
<path d="M641.663 313.051C614.476 293.244 557.476 290.809 507.846 308.415C467.368 322.774 433.558 342.651 379.005 344.425C293.429 347.206 238.745 320.803 184.595 293.509C110.979 256.403 89.4735 254.194 0 277.066V313.2C84.8648 292.14 147.931 319.14 215.561 338.888C335.638 373.923 413.035 369.751 530.234 324.502C546.595 318.181 568.854 309.344 585.672 318.932C606.032 330.542 588.644 343.737 570.614 352.606C489.725 392.396 391.421 393.417 287.8 383.521C218.26 376.879 162.709 353.462 94.9048 345.181C60.1041 340.923 29.6354 346.847 0 354.618V387.812C33.0988 374.331 70.0234 363.352 113.43 370.011C182.777 380.649 248.755 397.011 318.517 406.704C415.221 420.144 513.935 430.464 606.332 397.618C658.24 379.158 676.152 338.175 641.663 313.051Z" fill="#101510"/>
<path d="M2160 566.055C2146.18 558.528 2131.56 551.254 2120.75 542.768C2063.81 498.085 2062.12 446.521 2052.01 396.236C2042.81 350.471 1966.24 318.684 1877.61 325.264C1802.25 330.855 1746.59 368.28 1743.38 413.154C1741.33 441.798 1729.08 470.891 1765.38 496.66C1784.94 510.54 1826.34 510.927 1843.48 526.4C1868.36 548.862 1852.89 573.459 1856.06 597.054C1860.21 628.007 1877.16 655.62 1931.3 673.818C2011.1 700.645 2064.44 697.075 2160 658.225V566.055ZM2068.71 675.17C2010.4 683.046 1965.47 670.127 1930.99 647.487C1900.31 627.342 1895.11 603.267 1894.67 578.818C1894.46 551.157 1910.8 520.881 1859.05 500.008C1829.59 488.128 1787.19 485.571 1773.98 462.602C1747.14 415.938 1797.19 359.538 1879.43 348.198C1943.84 339.317 2003.44 365.345 2024.32 410.192C2046.07 456.948 2035.97 507.298 2085.97 550.784C2110.07 571.739 2143.18 590.706 2144.8 616.378C2146.57 644.415 2127.53 667.23 2068.71 675.17Z" fill="#101510"/>
<path d="M440.89 0H349.909C332.474 16.4133 313.09 32.427 299.092 49.545C275.273 78.6618 293.335 101.979 345.65 119.313C365.641 125.936 390.173 131.733 390.665 146.17C390.787 149.761 382.532 155.714 375.867 156.681C345.06 161.158 319.984 153.441 299.491 143.394C216.697 102.786 203.204 52.5123 259.811 1.9683C260.45 1.39294 261.065 0.735054 261.649 0L220.65 0C179.529 44.0964 199.45 115.465 265.495 150.906C298.091 168.396 336.63 182.479 387.286 171.833C430.704 162.71 433.061 141.458 431.264 121.719C427.55 80.9325 422.054 40.23 440.89 0Z" fill="#101510"/>
<path d="M2160 169.228C2091.09 187.064 2033.98 171.833 1975.64 151.718C1951.48 143.386 1919.18 118.462 1889.5 143.149C1866.41 162.348 1878.86 186.813 1910.87 205.189C1952.69 229.206 2015.7 235.526 2067.96 250.876C2103.4 261.29 2132.75 274.849 2160.01 289.756L2160 169.228Z" fill="#101510"/>
<path d="M554.883 0H512.458C510.197 3.2778 507.871 6.5448 506.175 9.8928C482.837 56.1276 501.86 103.796 487.18 150.368C477.149 182.188 428.635 212.344 370.736 217.415C318.237 222.005 273.577 211.043 245.044 189.354C169.423 131.86 133.127 69.12 152.739 0H107.984C106.455 3.8934 104.557 7.8003 105.121 11.61C115.311 80.6004 156.857 146.27 229.036 203.513C287.489 249.872 393.629 263.814 478.967 211.904C534.984 177.836 541.91 137.43 542.589 95.6907C543.112 63.72 534.399 31.2876 554.883 0Z" fill="#101510"/>
<path d="M1783.22 1019.34C1675.6 953.41 1683.47 881.863 1802.37 821.296C1901.19 770.963 2032.06 759.466 2160 743.992V697.525C2029.84 718.545 1928.38 763.926 1816.64 800.471C1627.73 862.252 1624.28 978.841 1808.42 1041.46C1814.47 1043.52 1821.34 1044.97 1827.83 1046.73C1823.6 1044 1819.5 1041.21 1815.12 1038.55C1804.55 1032.12 1793.74 1025.79 1783.22 1019.34Z" fill="#101510"/>
<path d="M1952.08 978.977C2017.03 1004.8 2075.19 1033.77 2065.74 1080H2124.68C2110.94 1031.66 2056.01 996.378 1979.96 966.978C1941.07 951.941 1915.48 931.578 1930.18 905.688C1944.89 879.797 1984.56 869.292 2036.76 870.588C2084.24 871.768 2120.39 886.469 2160 897.032V871.063C2138.25 867.099 2116.09 863.565 2095.37 858.54C2024.06 841.244 1944.04 850.332 1907.65 880.599C1868.96 912.786 1890.51 954.498 1952.08 978.977Z" fill="#101510"/>
<path d="M83.4672 699.143C72.9378 671.147 51.214 645.03 0 628.806V666.762C43.2015 695.277 48.3897 729.111 49.4295 763.341C50.1482 786.991 36.2289 807.818 0 823.551V881.221C32.1508 875.146 53.6544 862.807 68.3964 847.965C116.381 799.648 102.248 749.085 83.4672 699.143Z" fill="#101510"/>
<path d="M116.86 126.147C96.7061 84.0699 47.7567 45.3276 55.4007 0H23.1796C14.5769 31.3713 42.6618 58.9761 61.8305 87.4098C94.1204 135.302 73.1718 176.899 0 208.154V240.772C79.1368 232.232 138.97 172.314 116.86 126.147Z" fill="#101510"/>
<path d="M73.2009 1080C86.9841 1051.65 117.019 1030.18 182.878 1031.63C240.446 1032.89 265.474 1060.22 302.209 1077.73C303.712 1078.44 305.114 1079.21 306.49 1080H344.852C328.008 1069.47 311.533 1058.79 293.533 1048.8C256.341 1028.16 226.932 1000.75 163.888 998.459C79.9763 995.405 44.1603 1038.19 24.4258 1080H73.2009Z" fill="#101510"/>
<path d="M2160 21.9051C2133.11 31.0446 2109.23 42.633 2076.24 46.8288C2006.02 55.7631 1955.38 37.9188 1907.05 16.4376C1894.37 10.8 1881.22 5.4297 1868.17 0H1755.97C1807.5 4.0041 1850.24 18.1845 1891.39 34.0767C1972.73 65.4912 2054.58 95.0805 2160 63.2664V21.9051Z" fill="#101510"/>
<path d="M1966.42 0C1987.27 10.8486 2009.58 20.9574 2041.45 22.14C2076.4 23.4306 2097.34 12.0879 2116.72 0H1966.42Z" fill="#101510"/>
<path d="M21.2131 100.739C17.6962 87.3204 14.7604 73.383 0 61.4463V167.321C0.231094 167.214 0.457073 167.075 0.67586 166.906C25.2545 146.256 27.1873 123.519 21.2131 100.739Z" fill="#101510"/>
<path d="M236.75 1080C224.364 1070.16 208.213 1061.93 184.149 1061.48C159.321 1061.02 144.763 1069.32 136.117 1080H236.75Z" fill="#101510"/>
<path d="M1469.96 687.828C1464.93 708.078 1468.14 735.418 1411.78 746.367C1375.56 753.387 1383.71 736.236 1380.92 726.927C1373.49 702.049 1344.15 684.861 1305.2 670.656C1290.89 665.434 1267.49 661.476 1271.53 651.094C1277.08 636.855 1304.2 630.731 1328.78 626.271C1415.93 610.47 1469.96 632.761 1469.96 687.828Z" fill="#101510"/>
<path d="M886.171 348.735C887.864 370.783 874.955 388.236 827.582 394.449C798.3 398.291 792.792 387.801 793.248 377.709C794.578 348.154 797.72 318.606 801.675 289.108C802.647 281.859 807.056 272.865 825.85 272.403C852.789 271.742 859.184 283.743 866.383 293.12C880.032 310.884 886.598 329.554 886.171 348.735Z" fill="#101510"/>
<path d="M1011.55 193.05C962.156 177.66 900.101 163.113 850.43 141.445C806.213 122.154 819.695 75.587 864.132 66.3854C906.908 57.5564 934.253 74.6392 963.638 85.4446C997.584 97.9294 1032.6 102.86 1075.34 99.2714C1135.19 94.244 1150.7 104.882 1131.92 138.216C1116.45 165.659 1084.28 186.263 1011.55 193.05Z" fill="#101510"/>
<path d="M1098.01 1037.67C1053.27 1036.41 1047.76 1024.8 1065.16 1008.1C1088.96 985.249 1113.69 962.646 1139.35 940.29C1147.08 933.54 1157.7 925.13 1175.88 927.233C1197.26 929.709 1204.82 940.652 1203.65 949.657C1200.54 973.417 1204.2 998.467 1172.59 1018.98C1153.71 1031.23 1126.7 1036.26 1098.01 1037.67Z" fill="#101510"/>
<path d="M1951.83 571.32C1953.26 537.708 1964.09 503.121 1910.93 475.311C1887.33 462.964 1845.39 461.76 1831.3 444.293C1813.37 422.078 1845.35 392.146 1897.23 387.942C1954.49 383.3 1959.33 409.971 1970.11 428.212C1997.76 475.006 1988.37 526.265 2036.93 570.675C2054.34 586.605 2079.37 600.766 2085.19 619.307C2088.53 629.948 2082.1 640.354 2059.2 643.902C2018.31 650.233 1993.36 638.115 1973.23 622.655C1952.85 607.022 1949.93 589.375 1951.83 571.32Z" fill="#101510"/>
</g>
<defs>
<clipPath id="clip0_1417_6604">
<rect width="2160" height="1080" fill="white"/>
</clipPath>
</defs>
</svg>
