<svg width="104" height="134" viewBox="0 0 104 134" fill="none" xmlns="http://www.w3.org/2000/svg">
<path d="M61.4316 81.182C64.0552 81.182 66.182 79.0552 66.182 76.4316C66.182 73.808 64.0552 71.6812 61.4316 71.6812C58.808 71.6812 56.6812 73.808 56.6812 76.4316C56.6812 79.0552 58.808 81.182 61.4316 81.182Z" fill="#F0522F"/>
<path d="M68.8042 58.3396C67.761 57.6454 66.4849 57.3938 65.2563 57.6401C64.0276 57.8863 62.947 58.6103 62.252 59.6529C61.5569 60.6955 61.3042 61.9715 61.5494 63.2003C61.7947 64.4291 62.5177 65.5103 63.5598 66.2063L77.7416 75.6608C78.2581 76.0058 78.8376 76.2456 79.4468 76.3665C80.056 76.4874 80.6831 76.4871 81.2923 76.3656C81.9014 76.244 82.4806 76.0036 82.9967 75.6581C83.5129 75.3126 83.9559 74.8687 84.3004 74.3519C84.645 73.8351 84.8843 73.2555 85.0047 72.6461C85.1251 72.0368 85.1243 71.4097 85.0022 70.8006C84.8801 70.1916 84.6392 69.6126 84.2933 69.0968C83.9473 68.5809 83.5031 68.1383 82.986 67.7942L68.8042 58.3396Z" fill="#F0522F"/>
<path d="M42.5687 81.182C45.1923 81.182 47.3191 79.0552 47.3191 76.4316C47.3191 73.808 45.1923 71.6812 42.5687 71.6812C39.9451 71.6812 37.8182 73.808 37.8182 76.4316C37.8182 79.0552 39.9451 81.182 42.5687 81.182Z" fill="#F0522F"/>
<path d="M41.7511 59.6503C41.4072 59.1332 40.9647 58.6891 40.4489 58.3433C39.9332 57.9976 39.3543 57.7569 38.7454 57.6351C38.1365 57.5134 37.5095 57.5129 36.9005 57.6337C36.2914 57.7546 35.7121 57.9944 35.1958 58.3394L21.014 67.7939C20.4969 68.138 20.0527 68.5807 19.7067 69.0965C19.3608 69.6124 19.1199 70.1914 18.9978 70.8004C18.8758 71.4094 18.8749 72.0365 18.9953 72.6459C19.1157 73.2552 19.355 73.8349 19.6996 74.3517C20.0441 74.8685 20.4871 75.3123 21.0033 75.6578C21.5195 76.0034 22.0987 76.2438 22.7078 76.3653C23.3169 76.4869 23.944 76.4872 24.5532 76.3663C25.1625 76.2454 25.7419 76.0056 26.2584 75.6606L40.4403 66.206C40.9571 65.862 41.4011 65.4193 41.7468 64.9035C42.0925 64.3877 42.3331 63.8088 42.4548 63.1999C42.5766 62.591 42.5771 61.9641 42.4564 61.355C42.3356 60.7459 42.096 60.1666 41.7511 59.6503Z" fill="#F0522F"/>
<path d="M4.72727 133.182H99.2727C100.526 133.182 101.729 132.684 102.615 131.797C103.502 130.911 104 129.708 104 128.455V19.7274C104 18.4737 103.502 17.2713 102.615 16.3848C101.729 15.4982 100.526 15.0002 99.2727 15.0002H66.1818C66.1818 11.2389 64.6877 7.63172 62.0281 4.97212C59.3685 2.31251 55.7612 0.818359 52 0.818359C48.2387 0.818359 44.6315 2.31251 41.9719 4.97212C39.3123 7.63172 37.8182 11.2389 37.8182 15.0002H4.72727C3.47352 15.0002 2.27112 15.4982 1.38459 16.3848C0.498051 17.2713 0 18.4737 0 19.7274V128.455C0 129.708 0.498051 130.911 1.38459 131.797C2.27112 132.684 3.47352 133.182 4.72727 133.182ZM42.5455 24.4547C43.7992 24.4547 45.0016 23.9567 45.8881 23.0701C46.7747 22.1836 47.2727 20.9812 47.2727 19.7274V15.0002C47.2727 13.7464 47.7708 12.544 48.6573 11.6575C49.5438 10.771 50.7462 10.2729 52 10.2729C53.2537 10.2729 54.4562 10.771 55.3427 11.6575C56.2292 12.544 56.7273 13.7464 56.7273 15.0002V19.7274C56.7273 20.9812 57.2253 22.1836 58.1119 23.0701C58.9984 23.9567 60.2008 24.4547 61.4545 24.4547H75.6364V33.9093H28.3636V24.4547H42.5455ZM9.45455 24.4547H18.9091V38.6365C18.9091 39.8903 19.4071 41.0927 20.2937 41.9792C21.1802 42.8658 22.3826 43.3638 23.6364 43.3638H80.3636C81.6174 43.3638 82.8198 42.8658 83.7063 41.9792C84.5929 41.0927 85.0909 39.8903 85.0909 38.6365V24.4547H94.5455V123.727H9.45455V24.4547Z" fill="#F0522F"/>
<path d="M71.4954 95.4002L33.6773 90.673C32.4417 90.5345 31.2013 90.8885 30.2249 91.658C29.2484 92.4276 28.6144 93.5509 28.4602 94.7846C28.306 96.0183 28.6441 97.2631 29.4011 98.2493C30.1582 99.2355 31.2733 99.8838 32.5049 100.054L70.3231 104.781C70.5191 104.806 70.7164 104.818 70.914 104.818C72.116 104.816 73.272 104.356 74.1471 103.532C75.0221 102.708 75.5504 101.582 75.6245 100.382C75.6986 99.1823 75.3129 97.9994 74.5458 97.074C73.7788 96.1485 72.688 95.55 71.4954 95.4002Z" fill="#F0522F"/>
</svg>
